<svg width="24" height="24" viewBox="0 0 24 24" fill="none" xmlns="http://www.w3.org/2000/svg">
<path d="M10.5925 5L10.5925 16.17L5.7125 11.29C5.3225 10.9 4.6825 10.9 4.2925 11.29C3.9025 11.68 3.9025 12.31 4.2925 12.7L10.8825 19.29C11.2725 19.68 11.9025 19.68 12.2925 19.29L18.8825 12.7C19.2725 12.31 19.2725 11.68 18.8825 11.29C18.6957 11.1027 18.442 10.9975 18.1775 10.9975C17.913 10.9975 17.6593 11.1027 17.4725 11.29L12.5925 16.17L12.5925 5C12.5925 4.45 12.1425 4 11.5925 4C11.0425 4 10.5925 4.45 10.5925 5Z" fill="#333333"/>
</svg>
